<svg width="380" height="161" viewBox="0 0 380 161" fill="none" xmlns="http://www.w3.org/2000/svg">
<g clip-path="url(#clip0_2713_5561)">
<rect width="380" height="160.367" rx="11.6208" fill="#208EDD"/>
<path d="M29.7438 -0.00778662C117.204 -7.07593 103.523 -47.6596 190.984 -54.7278C278.444 -61.7959 268.986 -49.9146 356.447 -56.9827C443.908 -64.0508 431.902 -44.8166 519.363 -51.8848C606.823 -58.9529 622.391 -50.8285 709.851 -57.8966" stroke="white" stroke-opacity="0.1" stroke-width="2.40481" stroke-linecap="round"/>
<path d="M29.7425 -0.00732634C115.198 -6.91341 123.787 -36.5916 209.242 -43.4977C294.697 -50.4037 278.681 -72.1378 364.136 -79.0439C449.592 -85.9499 450.572 -53.4717 536.028 -60.3777C621.483 -67.2838 627.442 -51.3559 712.897 -58.262" stroke="white" stroke-opacity="0.1" stroke-width="2.40481" stroke-linecap="round"/>
<circle opacity="0.1" cx="11.0406" cy="180.703" r="52.8746" fill="white"/>
<path opacity="0.1" d="M292.344 -10.975L400.919 -10.975V93.2251C400.919 93.2251 352.123 98.3954 340.467 44.1079C328.811 -10.1796 292.344 -10.975 292.344 -10.975Z" fill="white"/>
<path opacity="0.1" d="M285.782 -20.9176L394.357 -20.9176V83.2825C394.357 83.2825 394.555 36.3527 333.905 34.1653C273.254 31.9779 285.782 -20.9176 285.782 -20.9176Z" fill="white"/>
</g>
<defs>
<clipPath id="clip0_2713_5561">
<rect width="380" height="160.367" rx="11.6208" fill="white"/>
</clipPath>
</defs>
</svg>
